<svg version="1.1" xmlns="http://www.w3.org/2000/svg" viewBox="0 0 776.1284475933116 950.2569790936102" width="776.1284475933116" height="950.2569790936102">
  <!-- svg-source:excalidraw -->
  
  <defs>
    <style class="style-fonts">
      
    </style>
    
  </defs>
  <g stroke-linecap="round" transform="translate(10 33.410999496656814) rotate(0 349.95700478977676 221.74695003960517)"><path d="M508.12 24.43 C532.6 28.53, 553.19 41.56, 573 51.98 C592.82 62.41, 611.22 74.16, 627.01 86.99 C642.79 99.81, 656.91 114.06, 667.71 128.92 C678.5 143.79, 686.35 160, 691.78 176.17 C697.21 192.35, 700.6 209.62, 700.3 225.98 C700 242.34, 696.29 258.34, 689.96 274.33 C683.63 290.32, 674.15 306.96, 662.31 321.92 C650.46 336.88, 635.55 351.62, 618.89 364.09 C602.24 376.56, 582.93 386.72, 562.39 396.76 C541.85 406.8, 519.26 417.18, 495.67 424.31 C472.08 431.44, 446.42 436.34, 420.86 439.54 C395.31 442.73, 368.2 443.85, 342.35 443.48 C316.51 443.11, 291.01 441.2, 265.8 437.3 C240.6 433.4, 214.18 427.52, 191.12 420.08 C168.07 412.65, 147.29 403.12, 127.49 392.67 C107.68 382.23, 88.18 370.54, 72.31 357.4 C56.45 344.27, 43.27 328.99, 32.29 313.85 C21.32 298.72, 11.97 282.75, 6.46 266.58 C0.95 250.41, -1.28 233.22, -0.75 216.81 C-0.23 200.4, 3.12 183.9, 9.63 168.14 C16.13 152.37, 26.42 136.84, 38.29 122.23 C50.15 107.61, 64.37 93.22, 80.83 80.47 C97.29 67.72, 116.49 55.8, 137.04 45.72 C157.6 35.64, 180.64 26.91, 204.18 19.97 C227.72 13.03, 252.73 7.48, 278.3 4.08 C303.87 0.68, 331.69 -0.81, 357.62 -0.44 C383.55 -0.07, 407.13 1.58, 433.88 6.29 C460.64 11, 502.84 22.93, 518.14 27.82 C533.43 32.71, 528.43 32.46, 525.67 35.62 M422.14 5.2 C447.64 4.97, 474.42 13.22, 498.12 20.03 C521.82 26.85, 543.84 36.12, 564.34 46.09 C584.84 56.06, 604.81 67.07, 621.13 79.84 C637.45 92.61, 650.81 108.03, 662.24 122.71 C673.67 137.4, 683.63 152.15, 689.7 167.94 C695.77 183.73, 698.25 200.64, 698.66 217.44 C699.07 234.24, 697.12 252.67, 692.15 268.74 C687.19 284.81, 679.92 299.27, 668.86 313.85 C657.8 328.43, 641.77 342.76, 625.79 356.2 C609.8 369.65, 592.92 384.1, 572.95 394.52 C552.98 404.94, 529.35 411.84, 505.97 418.72 C482.59 425.6, 457.89 431.48, 432.65 435.8 C407.42 440.11, 380.75 444.29, 354.56 444.63 C328.37 444.98, 301.09 441.69, 275.53 437.86 C249.97 434.03, 224.53 428.55, 201.19 421.64 C177.86 414.74, 155.66 406.43, 135.52 396.45 C115.38 386.47, 96.61 374.38, 80.33 361.79 C64.05 349.2, 49.53 335.63, 37.85 320.93 C26.18 306.23, 16.7 289.81, 10.3 273.59 C3.91 257.38, 0.13 240.11, -0.51 223.63 C-1.15 207.15, 1.17 190.49, 6.46 174.71 C11.75 158.92, 20.23 143.79, 31.23 128.91 C42.23 114.04, 56.45 98.39, 72.47 85.46 C88.48 72.53, 107.03 61.91, 127.31 51.33 C147.6 40.74, 170.96 29.36, 194.19 21.95 C217.41 14.55, 241.47 10.79, 266.65 6.9 C291.83 3.01, 319.29 -0.93, 345.28 -1.41 C371.27 -1.89, 409.78 2.43, 422.59 4.03 C435.4 5.64, 423.1 4.22, 422.13 8.2" stroke="none" stroke-width="0" fill="#ced4da"></path><path d="M449.5 8.64 C474.74 9.65, 499.93 21.06, 522.68 29.34 C545.43 37.61, 566.83 47.2, 586.01 58.28 C605.18 69.37, 622.95 82.29, 637.74 95.84 C652.53 109.4, 665.07 124.53, 674.75 139.6 C684.44 154.67, 691.8 170.26, 695.86 186.25 C699.91 202.25, 700.9 219.23, 699.08 235.56 C697.25 251.89, 692.16 268.51, 684.89 284.24 C677.62 299.98, 667.98 315.47, 655.44 329.96 C642.91 344.45, 627.17 358.99, 609.67 371.21 C592.17 383.42, 571.78 393.78, 550.43 403.26 C529.09 412.75, 505.82 421.94, 481.58 428.11 C457.34 434.28, 430.66 437.85, 404.99 440.31 C379.32 442.77, 353.35 443.74, 327.57 442.88 C301.79 442.02, 275.36 439.87, 250.29 435.15 C225.22 430.44, 199.83 422.69, 177.13 414.59 C154.43 406.49, 133.25 397.64, 114.11 386.55 C94.96 375.47, 77.16 361.58, 62.26 348.1 C47.36 334.62, 34.46 320.88, 24.69 305.69 C14.92 290.49, 7.49 273.17, 3.62 256.93 C-0.26 240.69, -0.27 224.64, 1.46 208.27 C3.19 191.89, 6.65 174.49, 14 158.67 C21.34 142.85, 32.5 127.55, 45.51 113.34 C58.52 99.12, 74.52 85.68, 92.04 73.38 C109.56 61.07, 129.54 49.1, 150.64 39.49 C171.74 29.88, 194.58 21.77, 218.65 15.71 C242.73 9.65, 269.54 5.81, 295.1 3.12 C320.65 0.43, 345.54 -1.62, 371.98 -0.41 C398.41 0.79, 439.68 7.9, 453.71 10.35 C467.75 12.8, 457.87 10.84, 456.17 14.3 M267.92 6.48 C290.42 -0.33, 320.74 1.3, 347.09 1.02 C373.44 0.73, 400.65 1.2, 426.02 4.76 C451.39 8.32, 476.27 15.2, 499.3 22.37 C522.32 29.54, 543.98 38, 564.17 47.78 C584.35 57.56, 603.73 68.31, 620.4 81.03 C637.07 93.75, 652.43 109.14, 664.2 124.09 C675.98 139.05, 685.33 154.69, 691.06 170.75 C696.78 186.82, 698.37 204.22, 698.56 220.5 C698.76 236.78, 697.45 252.48, 692.22 268.41 C686.98 284.34, 678.21 301.06, 667.14 316.07 C656.08 331.08, 641.73 345.33, 625.82 358.47 C609.91 371.61, 591.69 384.33, 571.7 394.9 C551.71 405.46, 529.05 414.69, 505.86 421.85 C482.67 429.02, 458.07 434.45, 432.56 437.88 C407.05 441.32, 378.91 442.48, 352.8 442.46 C326.68 442.45, 301.18 441.26, 275.85 437.79 C250.51 434.31, 224.42 428.74, 200.78 421.6 C177.14 414.46, 154.18 405.06, 134.01 394.94 C113.84 384.82, 95.98 373.33, 79.77 360.89 C63.55 348.45, 48.42 334.86, 36.71 320.29 C24.99 305.71, 15.71 289.35, 9.48 273.42 C3.24 257.5, -0.23 241.06, -0.7 224.72 C-1.17 208.38, 0.87 191.5, 6.65 175.4 C12.42 159.29, 22.84 143.07, 33.94 128.11 C45.05 113.15, 57.24 98.73, 73.29 85.63 C89.34 72.53, 110.18 60.15, 130.24 49.5 C150.3 38.84, 170.61 28.89, 193.65 21.7 C216.69 14.51, 255.83 8.34, 268.49 6.36 C281.15 4.37, 268.4 6.17, 269.62 9.78" stroke="#1e1e1e" stroke-width="4" fill="none"></path></g><g stroke-linecap="round" transform="translate(49.957004789776875 59.52101149277064) rotate(0 309.9999999999999 196.42857142857144)"><path d="M429.8 15.28 C453.43 18.08, 473.94 29.44, 493.62 38.59 C513.3 47.75, 532.06 58.17, 547.88 70.18 C563.7 82.2, 577.57 96.58, 588.55 110.71 C599.53 124.83, 608.56 139.54, 613.74 154.92 C618.92 170.31, 620.53 187.18, 619.64 203.02 C618.75 218.86, 615 234.99, 608.39 249.95 C601.77 264.9, 592.03 279.09, 579.94 292.76 C567.84 306.43, 552.66 320.61, 535.81 331.96 C518.96 343.31, 499.67 352.38, 478.84 360.87 C458 369.35, 434.25 377.55, 410.78 382.87 C387.31 388.19, 362.62 391.58, 337.99 392.78 C313.36 393.97, 287.31 392.51, 262.97 390.05 C238.63 387.58, 214.71 383.84, 191.96 378 C169.21 372.16, 146.64 364.41, 126.46 355.02 C106.27 345.64, 86.6 333.89, 70.84 321.7 C55.09 309.52, 42.63 295.89, 31.92 281.93 C21.22 267.98, 12 253.38, 6.59 238 C1.19 222.61, -1.2 205.45, -0.5 189.61 C0.19 173.77, 4.04 157.94, 10.75 142.97 C17.46 128, 27.37 113.23, 39.75 99.78 C52.13 86.34, 67.96 73.54, 85.02 62.28 C102.08 51.03, 121.35 40.96, 142.1 32.28 C162.86 23.6, 186.08 15.55, 209.55 10.21 C233.01 4.88, 258.37 1.72, 282.9 0.25 C307.43 -1.23, 330.44 -1.57, 356.74 1.37 C383.05 4.31, 425.24 13.94, 440.72 17.91 C456.2 21.88, 451.81 22.23, 449.6 25.18 M255.31 3.98 C277.36 -2.02, 305.76 -0.56, 330.45 0.31 C355.15 1.18, 379.99 4.51, 403.5 9.18 C427.01 13.85, 450.57 20.34, 471.49 28.33 C492.4 36.31, 511.55 45.77, 529 57.1 C546.45 68.42, 563.4 82.64, 576.18 96.25 C588.96 109.87, 598.45 124.04, 605.7 138.79 C612.94 153.55, 618.36 169.21, 619.68 184.78 C621 200.36, 618.04 216.87, 613.62 232.24 C609.21 247.6, 603.46 262.59, 593.19 276.97 C582.92 291.35, 567.48 306.18, 552 318.51 C536.51 330.84, 519.52 341.56, 500.29 350.93 C481.06 360.31, 459.26 368.12, 436.62 374.74 C413.98 381.37, 388.77 387.56, 364.45 390.7 C340.12 393.84, 315.55 394.71, 290.68 393.6 C265.81 392.5, 239.09 388.8, 215.23 384.08 C191.38 379.37, 168.4 373.71, 147.56 365.31 C126.72 356.91, 107.57 345.16, 90.18 333.69 C72.78 322.23, 55.74 309.87, 43.21 296.52 C30.68 283.18, 22.25 268.22, 15 253.6 C7.75 238.99, 1.21 224.3, -0.29 208.83 C-1.79 193.36, 1.15 176.55, 6 160.78 C10.84 145.02, 18.77 128.75, 28.77 114.26 C38.77 99.78, 50.7 86.15, 65.98 73.87 C81.27 61.58, 100.83 49.99, 120.48 40.55 C140.14 31.11, 161.22 23.59, 183.92 17.21 C206.63 10.84, 244.79 3.85, 256.74 2.3 C268.68 0.76, 254.81 4.61, 255.59 7.95" stroke="none" stroke-width="0" fill="#ffffff"></path><path d="M245.29 3.73 C267.32 -2.44, 295.69 -1.2, 320.51 -0.55 C345.33 0.11, 370.41 3.38, 394.21 7.66 C418.01 11.93, 441.68 17.58, 463.31 25.09 C484.93 32.61, 505.91 42.08, 523.95 52.76 C541.99 63.44, 558.41 75.69, 571.56 89.18 C584.72 102.66, 595.15 118.58, 602.86 133.65 C610.57 148.72, 615.69 164.23, 617.81 179.59 C619.93 194.96, 619.15 210.44, 615.57 225.86 C612 241.27, 605.74 257.38, 596.35 272.07 C586.95 286.75, 573.96 301.52, 559.2 313.97 C544.44 326.43, 526.64 337.04, 507.78 346.81 C488.91 356.57, 468.35 365.48, 446.02 372.58 C423.69 379.68, 398.06 386.04, 373.8 389.41 C349.55 392.77, 325.04 393.55, 300.51 392.78 C275.98 392.01, 250.49 389.03, 226.63 384.79 C202.76 380.55, 178.76 374.93, 157.3 367.36 C135.85 359.79, 115.86 350.3, 97.91 339.38 C79.96 328.45, 63.1 314.91, 49.62 301.83 C36.14 288.75, 24.99 275.71, 17.01 260.91 C9.03 246.12, 3.88 228.88, 1.74 213.07 C-0.39 197.25, 0.61 181.57, 4.21 166.04 C7.82 150.52, 13.99 134.24, 23.37 119.93 C32.74 105.61, 45.86 92.72, 60.48 80.16 C75.1 67.61, 92.02 54.54, 111.08 44.59 C130.13 34.65, 150.5 27.55, 174.82 20.5 C199.13 13.45, 241.34 4.85, 256.95 2.28 C272.57 -0.28, 267.6 1.62, 268.52 5.11 M282.49 1.06 C305.17 -3.62, 331.72 -0.03, 355.98 2.48 C380.25 4.99, 405.29 10.34, 428.08 16.12 C450.86 21.89, 472.72 28.02, 492.7 37.14 C512.69 46.25, 531.89 58.44, 547.98 70.79 C564.06 83.13, 578.22 96.96, 589.2 111.2 C600.17 125.44, 608.63 141.22, 613.83 156.23 C619.03 171.24, 621.47 185.95, 620.4 201.27 C619.33 216.59, 613.96 232.86, 607.39 248.15 C600.83 263.45, 592.92 279.02, 581.01 293.04 C569.11 307.06, 553.11 320.74, 535.96 332.26 C518.8 343.79, 498.9 353.89, 478.09 362.21 C457.27 370.53, 434.43 377.35, 411.07 382.18 C387.72 387.01, 362.68 389.75, 337.96 391.18 C313.24 392.61, 287.08 392.83, 262.74 390.74 C238.39 388.65, 214.53 384.66, 191.88 378.65 C169.23 372.64, 146.89 363.91, 126.86 354.67 C106.82 345.43, 87.58 335.5, 71.68 323.23 C55.78 310.95, 42.07 295.29, 31.46 281.03 C20.85 266.78, 13.02 252.65, 8.03 237.69 C3.04 222.74, 0.85 207.09, 1.54 191.31 C2.24 175.54, 5.96 158.32, 12.22 143.05 C18.47 127.77, 26.98 113.32, 39.07 99.66 C51.15 86, 67.51 72.36, 84.72 61.08 C101.94 49.81, 121.54 40.62, 142.34 32.01 C163.13 23.41, 186.34 14.73, 209.47 9.46 C232.6 4.19, 268.77 1, 281.12 0.4 C293.46 -0.21, 282.86 2.61, 283.52 5.82" stroke="#1e1e1e" stroke-width="4" fill="none"></path></g><g stroke-linecap="round"><g transform="translate(502.0158829011791 410.63463304946094) rotate(0 8.27000487656585 30.86407837818632)"><path d="M-0.67 -0.46 C1.99 9.84, 12.98 51.63, 15.66 62.05 M1.18 -1.75 C4.23 8.15, 15.16 49.21, 17.91 60.09" stroke="#846358" stroke-width="4" fill="none"></path></g></g><mask></mask><g stroke-linecap="round"><g transform="translate(645.5727055576174 297.05850244442536) rotate(0 31.66533540319074 11.352271805822113)"><path d="M1.13 -0.17 C11.88 3.54, 53.32 18.16, 63.73 21.9 M0.27 -1.31 C10.95 2.57, 52.54 18.9, 62.99 23.01" stroke="#846358" stroke-width="4" fill="none"></path></g></g><mask></mask><g stroke-linecap="round"><g transform="translate(370.6047409779376 82.98127901755333) rotate(0 0 -36.01931902112938)"><path d="M-0.58 -1.15 C-0.62 -13.11, 0.83 -59.35, 0.89 -71.26 M1.32 0.85 C1.1 -11.48, 0.81 -60.9, 0.4 -72.98" stroke="#846358" stroke-width="4" fill="none"></path></g></g><mask></mask><g stroke-linecap="round"><g transform="translate(94.09502397385609 328.67606508128813) rotate(0 -28.650971700408036 21.282624379686922)"><path d="M0.77 0.99 C-9.08 7.99, -48.76 34.96, -58.29 41.89 M-0.28 0.47 C-9.84 7.61, -46.69 35.84, -56.09 43.07" stroke="#846358" stroke-width="4" fill="none"></path></g></g><mask></mask><g stroke-linecap="round" transform="translate(18.530465425134253 533.8518162529061) rotate(0 353.3957937745254 203.20258142035203)"><path d="M32 0 C167.25 -0.8, 301.44 -2.04, 674.79 0 M32 0 C167.75 1.08, 304.16 1.62, 674.79 0 M674.79 0 C696.62 -1.81, 705.81 9.85, 706.79 32 M674.79 0 C697.7 -0.04, 705.7 8.5, 706.79 32 M706.79 32 C707.07 126.38, 706.87 220.71, 706.79 374.41 M706.79 32 C707.47 144.07, 707.57 256.68, 706.79 374.41 M706.79 374.41 C705.29 397.59, 695.77 406.61, 674.79 406.41 M706.79 374.41 C705.66 393.51, 698.35 405.97, 674.79 406.41 M674.79 406.41 C489.47 406.09, 304.16 407.27, 32 406.41 M674.79 406.41 C506.54 408.58, 338.05 408.56, 32 406.41 M32 406.41 C11.91 407.31, 1.56 397.1, 0 374.41 M32 406.41 C9.83 405.34, 1.03 395.16, 0 374.41 M0 374.41 C-1.65 252.32, -2.46 131.76, 0 32 M0 374.41 C-1.12 249.73, -0.78 125.05, 0 32 M0 32 C1.95 11.67, 10.73 -0.85, 32 0 M0 32 C0.75 9.77, 9.25 -1.67, 32 0" stroke="#1e1e1e" stroke-width="2" fill="none"></path></g><g stroke-linecap="round"><g transform="translate(68.77809001728906 785.3295460669354) rotate(0 256.7419747497961 -99.91650455575814)"><path d="M-0.05 -0.48 C56.46 -11.43, 254.16 -32.28, 339.82 -65.37 C425.49 -98.46, 485.01 -176.56, 513.94 -199 M-1.53 -1.78 C55.29 -13.11, 256.31 -33.95, 342.13 -67.14 C427.96 -100.33, 484.84 -178.93, 513.42 -200.91" stroke="#1e1e1e" stroke-width="2" fill="none"></path></g></g><mask></mask><g stroke-linecap="round"><g transform="translate(103.63207937062498 851.2719663050714) rotate(0 256.7419747497961 -99.91650455575814)"><path d="M-0.02 1.15 C56.68 -9.8, 255.59 -33.1, 341.27 -66.71 C426.96 -100.33, 485.29 -178.29, 514.09 -200.54 M-1.5 0.71 C55.02 -10.01, 254.83 -32.15, 340.69 -65.53 C426.54 -98.92, 484.65 -177.29, 513.64 -199.59" stroke="#1e1e1e" stroke-width="2" fill="none"></path></g></g><mask></mask><g stroke-linecap="round" transform="translate(81.44796603636951 703.8652469632453) rotate(0 57.48810967759698 57.48810967759698)"><path d="M8.38 28.48 C8.38 28.48, 8.38 28.48, 8.38 28.48 M8.38 28.48 C8.38 28.48, 8.38 28.48, 8.38 28.48 M3.26 46.56 C9.7 39.76, 17.13 30.73, 32.13 13.35 M3.26 46.56 C13.14 34.9, 22.74 23.51, 32.13 13.35 M4.05 57.85 C14.7 43.25, 28.24 30.15, 53.25 1.24 M4.05 57.85 C17.65 43.35, 30.83 26.89, 53.25 1.24 M6.15 67.62 C18.08 53.81, 28.37 38.17, 63.23 1.96 M6.15 67.62 C26.04 44.73, 45.88 20.73, 63.23 1.96 M7.6 78.15 C22.22 57.29, 39.67 41.4, 72.55 3.44 M7.6 78.15 C22.5 62.27, 37.28 44.97, 72.55 3.44 M11.01 86.42 C31.14 64.19, 52 41.42, 81.86 4.91 M11.01 86.42 C30.79 62.96, 49.77 40.57, 81.86 4.91 M16.39 92.42 C33.97 73.7, 50.23 52.74, 88.56 9.41 M16.39 92.42 C40.25 65.66, 64.13 38.13, 88.56 9.41 M21.12 99.18 C49.98 69.77, 75.19 39.2, 94.6 14.66 M21.12 99.18 C36.8 80.45, 54.14 63.72, 94.6 14.66 M25.84 105.94 C44.2 87.37, 60.33 66.04, 100.63 19.9 M25.84 105.94 C47.13 80.16, 70.08 54.28, 100.63 19.9 M33.85 108.92 C55.5 83.43, 75.5 58.77, 106.67 25.15 M33.85 108.92 C50.19 91.08, 64.79 72.72, 106.67 25.15 M41.2 112.66 C60.74 90.02, 76.79 71.38, 110.74 32.66 M41.2 112.66 C65.95 85.32, 89.47 57.03, 110.74 32.66 M49.2 115.65 C65.99 99.69, 82.7 79.07, 114.15 40.93 M49.2 115.65 C65.11 97.84, 79.88 80.25, 114.15 40.93 M60.49 114.86 C81.75 88.83, 102.46 64.61, 117.57 49.2 M60.49 114.86 C74.98 98.72, 89.93 81.63, 117.57 49.2 M71.78 114.07 C84.61 99.24, 97.33 84.5, 117.04 61.99 M71.78 114.07 C80.45 102.83, 89.75 93.16, 117.04 61.99 M80.44 116.3 C92.58 99.23, 108.95 86.13, 115.87 75.55 M80.44 116.3 C92.61 103.11, 103.51 90.12, 115.87 75.55" stroke="#868e96" stroke-width="1" fill="none"></path><path d="M52.92 0.49 C61.58 -0.97, 72.81 0.54, 81.16 4.02 C89.51 7.5, 97.63 14.4, 103.02 21.38 C108.4 28.36, 111.76 37.23, 113.47 45.89 C115.18 54.56, 115.63 64.92, 113.3 73.37 C110.97 81.83, 105.87 90.17, 99.48 96.62 C93.09 103.07, 83.59 109.14, 74.97 112.07 C66.35 115, 56.34 115.63, 47.76 114.21 C39.18 112.79, 30.48 108.93, 23.49 103.54 C16.5 98.15, 9.58 89.98, 5.81 81.89 C2.05 73.79, 0.48 63.87, 0.89 54.99 C1.3 46.11, 4.01 36.4, 8.27 28.61 C12.52 20.82, 17.99 12.88, 26.43 8.26 C34.86 3.63, 52.62 2.13, 58.89 0.87 C65.16 -0.39, 63.94 -0.21, 64.05 0.67 M65.73 2.1 C74.48 2.92, 85.18 7.32, 92.47 12.18 C99.76 17.04, 105.74 23.38, 109.46 31.26 C113.18 39.14, 115.18 50.22, 114.78 59.46 C114.38 68.7, 111.59 78.98, 107.08 86.7 C102.57 94.42, 95.2 101.31, 87.7 105.78 C80.2 110.24, 70.93 112.55, 62.05 113.5 C53.18 114.44, 42.37 114.67, 34.44 111.45 C26.5 108.24, 19.8 101.15, 14.45 94.22 C9.1 87.29, 4.47 78.26, 2.33 69.85 C0.18 61.45, -0.39 52.56, 1.58 43.78 C3.54 35.01, 7.87 23.94, 14.11 17.21 C20.36 10.48, 30.38 6.41, 39.07 3.4 C47.76 0.38, 61.85 -0.53, 66.28 -0.87 C70.7 -1.2, 65.76 0.18, 65.62 1.4" stroke="#1e1e1e" stroke-width="2" fill="none"></path></g><g stroke-linecap="round" transform="translate(133.28862110864088 755.7059020355168) rotate(0 5.647454605325493 5.647454605325493)"><path d="M5.62 -0.3 C6.82 -0.38, 8.04 0.52, 8.99 1.32 C9.94 2.12, 10.98 3.38, 11.33 4.51 C11.68 5.64, 11.69 7.05, 11.09 8.11 C10.49 9.16, 8.99 10.4, 7.71 10.83 C6.44 11.26, 4.63 11.14, 3.43 10.71 C2.24 10.29, 1.04 9.2, 0.54 8.26 C0.04 7.32, 0.21 6.13, 0.43 5.07 C0.66 4.01, 0.94 2.68, 1.89 1.91 C2.85 1.15, 5.4 0.77, 6.15 0.48 C6.89 0.2, 6.49 0.14, 6.39 0.21 M6.2 -0.3 C7.29 -0.42, 8.64 0.15, 9.38 1.09 C10.12 2.03, 10.57 4, 10.65 5.34 C10.72 6.69, 10.32 8.18, 9.84 9.17 C9.37 10.16, 8.76 10.88, 7.81 11.29 C6.86 11.7, 5.37 12.06, 4.12 11.63 C2.88 11.21, 1.02 9.99, 0.33 8.72 C-0.36 7.44, -0.19 5.25, -0.01 4 C0.17 2.74, 0.42 1.73, 1.42 1.18 C2.42 0.64, 5.34 0.81, 5.98 0.75 C6.62 0.68, 5.29 0.86, 5.26 0.79" stroke="none" stroke-width="0" fill="#1e1e1e"></path><path d="M5.8 0.43 C6.87 0.51, 8.66 0.82, 9.65 1.55 C10.63 2.29, 11.53 3.56, 11.68 4.84 C11.84 6.12, 11.41 8.2, 10.56 9.23 C9.71 10.27, 7.78 10.86, 6.58 11.08 C5.37 11.3, 4.44 11.11, 3.34 10.56 C2.25 10.01, 0.51 8.83, 0 7.76 C-0.52 6.7, -0.2 5.36, 0.26 4.18 C0.72 3, 1.8 1.34, 2.76 0.7 C3.72 0.06, 5.33 0.37, 6.04 0.36 C6.74 0.35, 6.98 0.69, 6.97 0.65 M6.54 0.02 C7.81 0.1, 9.39 1.12, 10.23 2.02 C11.08 2.93, 11.53 4.44, 11.6 5.45 C11.68 6.46, 11.35 7.2, 10.69 8.06 C10.02 8.92, 8.84 10.29, 7.59 10.63 C6.35 10.97, 4.33 10.63, 3.21 10.12 C2.09 9.6, 1.34 8.43, 0.88 7.54 C0.43 6.65, 0.35 5.9, 0.49 4.78 C0.63 3.66, 0.73 1.65, 1.7 0.82 C2.67 0, 5.66 -0.01, 6.29 -0.18 C6.91 -0.36, 5.51 -0.41, 5.45 -0.23" stroke="#1e1e1e" stroke-width="2" fill="none"></path></g><g stroke-linecap="round" transform="translate(468.7642915259496 562.4529017560535) rotate(0 57.48810967759698 57.48810967759698)"><path d="M10.69 25.19 C10.69 25.19, 10.69 25.19, 10.69 25.19 M10.69 25.19 C10.69 25.19, 10.69 25.19, 10.69 25.19 M2.29 47.04 C13.35 37.19, 18.89 27.13, 37.72 6.29 M2.29 47.04 C11.51 37.49, 21.19 25.66, 37.72 6.29 M1.77 59.84 C20.87 38.74, 40.21 15.83, 50.97 3.24 M1.77 59.84 C12.29 48.1, 22.37 36.25, 50.97 3.24 M3.21 70.37 C24.56 47.67, 45.11 20.04, 62.92 1.69 M3.21 70.37 C21.01 50.23, 37.68 32.19, 62.92 1.69 M5.32 80.15 C28.27 54.23, 51.81 28.64, 71.58 3.92 M5.32 80.15 C28.75 52.7, 53.97 24.4, 71.58 3.92 M10.7 86.15 C30.07 59.72, 53.58 36.27, 80.24 6.15 M10.7 86.15 C34.75 58.13, 61.33 28.19, 80.24 6.15 M15.42 92.91 C35.19 72.51, 51.79 49.19, 87.59 9.89 M15.42 92.91 C42.59 63.39, 68.51 31.69, 87.59 9.89 M20.15 99.67 C43.58 73.74, 63.81 50.23, 93.63 15.14 M20.15 99.67 C44.11 73.04, 68.12 45.86, 93.63 15.14 M26.84 104.16 C47.76 81.17, 69.64 57.17, 99.66 20.39 M26.84 104.16 C55.74 69.95, 84.56 36.92, 99.66 20.39 M33.54 108.65 C59.77 78.11, 85.51 47.89, 105.7 25.64 M33.54 108.65 C55.58 85.04, 77.92 59.53, 105.7 25.64 M40.89 112.39 C68.64 82.96, 92.45 52.92, 109.12 33.9 M40.89 112.39 C57.61 93.52, 72.92 75.25, 109.12 33.9 M50.86 113.11 C73.44 88.75, 90.89 67.83, 111.87 42.92 M50.86 113.11 C76.15 85.16, 100.22 56.28, 111.87 42.92 M61.49 113.08 C77.33 96.54, 91.77 75.21, 114.63 51.95 M61.49 113.08 C79.43 92.64, 98.06 70.83, 114.63 51.95 M73.43 111.53 C83.71 100.2, 96.62 87.26, 113.45 65.5 M73.43 111.53 C83.05 99.15, 93.52 89.11, 113.45 65.5 M92.59 101.69 C93.71 97.14, 99.04 95.45, 105.71 86.59 M92.59 101.69 C98.38 96.29, 103.25 90.21, 105.71 86.59" stroke="#868e96" stroke-width="1" fill="none"></path><path d="M83.31 6.21 C91.26 9.26, 100.08 17.69, 105.27 25 C110.46 32.31, 113.31 41.32, 114.47 50.07 C115.63 58.83, 115.24 69.32, 112.22 77.55 C109.2 85.78, 103.24 93.65, 96.38 99.43 C89.51 105.22, 79.84 109.92, 71.01 112.25 C62.19 114.59, 51.82 115.28, 43.42 113.43 C35.01 111.58, 27.22 107.13, 20.6 101.16 C13.99 95.18, 7.06 85.88, 3.71 77.57 C0.37 69.26, -0.6 59.99, 0.53 51.3 C1.65 42.62, 5.51 32.78, 10.45 25.46 C15.39 18.15, 22.25 11.56, 30.15 7.42 C38.05 3.27, 48.34 0.43, 57.87 0.58 C67.39 0.74, 82.21 6.63, 87.29 8.35 C92.38 10.08, 89.05 10.21, 88.38 10.93 M53.87 -0.85 C62.65 -2.27, 73.12 0.74, 81.31 4.3 C89.5 7.86, 97.53 13.61, 103.01 20.51 C108.5 27.4, 112.52 36.9, 114.2 45.65 C115.89 54.4, 115.92 64.24, 113.14 73.01 C110.36 81.77, 103.84 91.81, 97.51 98.25 C91.19 104.68, 83.56 109, 75.17 111.6 C66.78 114.21, 55.81 114.99, 47.17 113.86 C38.53 112.73, 30.43 109.94, 23.34 104.82 C16.25 99.7, 8.76 91.53, 4.63 83.14 C0.5 74.76, -2.02 63.33, -1.44 54.52 C-0.86 45.7, 3.33 38.07, 8.09 30.23 C12.84 22.4, 19.84 12.41, 27.09 7.5 C34.34 2.59, 47.36 1.84, 51.57 0.79 C55.79 -0.26, 52.14 0.18, 52.36 1.21" stroke="#1e1e1e" stroke-width="2" fill="none"></path></g><g stroke-linecap="round" transform="translate(520.604946598221 614.293556828325) rotate(0 5.647454605325493 5.647454605325493)"><path d="M6.73 0.58 C7.97 0.66, 9.37 0.66, 10.06 1.53 C10.75 2.4, 10.91 4.54, 10.86 5.82 C10.82 7.1, 10.52 8.26, 9.79 9.21 C9.07 10.17, 7.64 11.35, 6.51 11.54 C5.38 11.74, 4.02 11.08, 2.99 10.4 C1.97 9.72, 0.75 8.65, 0.38 7.46 C0 6.28, 0.28 4.44, 0.74 3.28 C1.2 2.12, 2.2 1.05, 3.13 0.51 C4.06 -0.03, 5.67 0.07, 6.33 0.03 C7 -0.01, 7.02 0.1, 7.12 0.28 M6.53 0.78 C7.77 0.8, 9.26 0.57, 10.12 1.31 C10.98 2.05, 11.6 3.87, 11.67 5.2 C11.73 6.52, 11.29 8.15, 10.52 9.26 C9.74 10.38, 8.17 11.73, 7.02 11.91 C5.88 12.08, 4.64 11, 3.64 10.31 C2.64 9.61, 1.62 8.81, 1.04 7.74 C0.46 6.67, -0.17 5, 0.16 3.87 C0.48 2.74, 1.94 1.69, 2.98 0.96 C4.02 0.23, 5.79 -0.29, 6.4 -0.53 C7.02 -0.78, 6.69 -0.74, 6.68 -0.51" stroke="none" stroke-width="0" fill="#1e1e1e"></path><path d="M6.02 0.35 C7.13 0.42, 8.99 0.75, 9.85 1.63 C10.71 2.5, 11.12 4.33, 11.19 5.58 C11.26 6.83, 11.02 8.27, 10.27 9.14 C9.51 10.02, 7.93 10.61, 6.68 10.83 C5.43 11.05, 3.8 10.84, 2.78 10.46 C1.76 10.07, 0.95 9.59, 0.56 8.54 C0.16 7.48, 0.15 5.37, 0.4 4.12 C0.66 2.88, 1.06 1.74, 2.1 1.1 C3.14 0.46, 5.84 0.46, 6.63 0.28 C7.43 0.1, 6.86 -0.07, 6.87 0.04 M5.9 0.1 C6.91 0.11, 8.45 0.82, 9.33 1.62 C10.21 2.41, 11.13 3.54, 11.17 4.88 C11.22 6.22, 10.43 8.5, 9.61 9.65 C8.79 10.81, 7.4 11.58, 6.27 11.82 C5.14 12.06, 3.85 11.76, 2.81 11.11 C1.78 10.46, 0.53 9.1, 0.08 7.93 C-0.37 6.76, -0.28 5.39, 0.11 4.09 C0.51 2.79, 1.31 0.84, 2.44 0.13 C3.58 -0.59, 6.3 -0.11, 6.93 -0.2 C7.56 -0.28, 6.36 -0.54, 6.24 -0.37" stroke="#1e1e1e" stroke-width="2" fill="none"></path></g><g stroke-linecap="round" transform="translate(92.25765772196974 794.8344155232411) rotate(0 57.48810967759698 57.48810967759698)"><path d="M9.02 26.4 C9.02 26.4, 9.02 26.4, 9.02 26.4 M9.02 26.4 C9.02 26.4, 9.02 26.4, 9.02 26.4 M1.29 47.49 C11.17 36.08, 21.37 23.59, 38.68 4.47 M1.29 47.49 C11.25 36.1, 21.59 25.3, 38.68 4.47 M1.42 59.53 C16.54 45.54, 29.44 28.77, 51.93 1.42 M1.42 59.53 C14.99 43.05, 29.9 27.09, 51.93 1.42 M3.52 69.31 C22.74 44.69, 45.38 24.25, 61.91 2.14 M3.52 69.31 C23.76 47.08, 44.06 24.02, 61.91 2.14 M4.96 79.84 C23.07 60.09, 39.88 37.72, 70.57 4.37 M4.96 79.84 C25.36 56.26, 44.91 34.71, 70.57 4.37 M9.69 86.6 C26.37 67.45, 41.6 49.38, 79.23 6.6 M9.69 86.6 C33.45 60.59, 55.44 33.88, 79.23 6.6 M14.42 93.36 C32.84 71.2, 51.94 46.13, 86.58 10.34 M14.42 93.36 C36.13 65.34, 60.94 38.8, 86.58 10.34 M19.14 100.12 C41.4 74.34, 62.37 49.73, 92.62 15.59 M19.14 100.12 C47.46 66.48, 75.87 35.49, 92.62 15.59 M25.84 104.61 C48.92 77.44, 69.74 52.69, 99.31 20.08 M25.84 104.61 C55.16 71.32, 84.36 38.41, 99.31 20.08 M33.84 107.59 C56.09 81.26, 80.82 51.74, 104.7 26.08 M33.84 107.59 C54.97 81.87, 76.91 56.95, 104.7 26.08 M41.19 111.33 C61.65 91.23, 78.49 69.35, 108.11 34.35 M41.19 111.33 C60.72 86.92, 82.55 62.78, 108.11 34.35 M49.85 113.56 C75.1 87.17, 97.57 59.89, 112.18 41.86 M49.85 113.56 C71.11 89.24, 92.84 64.17, 112.18 41.86 M60.48 113.53 C73.99 98.15, 87.74 84.06, 113.62 52.4 M60.48 113.53 C72.59 100.37, 85.45 85.37, 113.62 52.4 M71.11 113.49 C80.23 101.74, 89.64 91.76, 112.44 65.95 M71.11 113.49 C85.7 96.5, 102.29 77.23, 112.44 65.95 M90.27 103.65 C95.94 97.28, 100.16 92.7, 105.36 86.29 M90.27 103.65 C96.25 96.83, 102.01 90.42, 105.36 86.29" stroke="#868e96" stroke-width="1" fill="none"></path><path d="M80.94 6.27 C88.76 9.2, 97.33 15.97, 102.88 22.76 C108.43 29.56, 112.8 38.18, 114.23 47.02 C115.65 55.86, 114.29 67.13, 111.43 75.83 C108.57 84.52, 103.38 93, 97.04 99.19 C90.71 105.37, 81.97 110.61, 73.44 112.94 C64.91 115.27, 54.6 114.97, 45.85 113.17 C37.1 111.37, 27.71 107.74, 20.92 102.13 C14.14 96.53, 8.74 87.71, 5.12 79.52 C1.5 71.33, -1.48 61.87, -0.81 53 C-0.15 44.13, 4.36 33.97, 9.12 26.29 C13.87 18.61, 20.09 11.3, 27.71 6.92 C35.33 2.54, 44.11 -0.55, 54.85 0.02 C65.58 0.59, 84.75 7.19, 92.1 10.34 C99.46 13.49, 99.63 18.01, 98.97 18.92 M62.41 0.22 C70.88 0.22, 82.14 4.98, 89.47 9.82 C96.79 14.66, 102.35 21.75, 106.37 29.26 C110.39 36.77, 113.31 45.73, 113.6 54.89 C113.89 64.04, 111.79 75.85, 108.11 84.2 C104.43 92.54, 98.61 99.94, 91.52 104.96 C84.43 109.99, 74.33 113.38, 65.56 114.35 C56.8 115.31, 47.23 113.63, 38.94 110.74 C30.64 107.86, 21.94 103.13, 15.79 97.03 C9.63 90.94, 4.66 82.65, 2.01 74.17 C-0.65 65.69, -1.82 54.93, -0.16 46.13 C1.49 37.33, 5.72 28.21, 11.93 21.35 C18.14 14.5, 28.46 8.5, 37.08 5.02 C45.7 1.54, 59.6 1.28, 63.67 0.49 C67.73 -0.31, 61.9 -0.42, 61.47 0.25" stroke="#1e1e1e" stroke-width="2" fill="none"></path></g><g stroke-linecap="round" transform="translate(144.09831279424134 846.6750705955126) rotate(0 5.647454605325493 5.647454605325493)"><path d="M6.42 0.39 C7.72 0.57, 9.79 1.53, 10.65 2.47 C11.51 3.41, 11.79 4.91, 11.58 6.01 C11.36 7.12, 10.31 8.32, 9.37 9.11 C8.43 9.9, 7.14 10.52, 5.94 10.76 C4.73 11, 3.01 11.18, 2.13 10.55 C1.25 9.92, 0.88 8.21, 0.65 6.96 C0.43 5.72, 0.31 4.1, 0.78 3.08 C1.26 2.05, 2.41 1.32, 3.49 0.81 C4.56 0.3, 6.61 0.05, 7.25 0.03 C7.89 0.01, 7.32 0.64, 7.32 0.7 M6.41 0.14 C7.6 0.18, 9.12 1.22, 9.87 2.06 C10.62 2.9, 10.95 4.1, 10.91 5.18 C10.87 6.25, 10.31 7.58, 9.63 8.52 C8.94 9.45, 7.82 10.44, 6.79 10.77 C5.76 11.09, 4.58 11.04, 3.45 10.47 C2.33 9.91, 0.64 8.34, 0.07 7.36 C-0.51 6.38, -0.46 5.56, 0.02 4.59 C0.5 3.62, 1.94 2.34, 2.94 1.55 C3.94 0.77, 5.34 0.06, 6.01 -0.11 C6.67 -0.29, 6.88 0.39, 6.94 0.49" stroke="none" stroke-width="0" fill="#1e1e1e"></path><path d="M7.31 -0.03 C8.51 0.22, 9.6 1.31, 10.19 2.24 C10.78 3.17, 10.88 4.38, 10.85 5.54 C10.83 6.7, 10.76 8.28, 10.06 9.19 C9.35 10.11, 7.85 10.88, 6.63 11.04 C5.42 11.2, 3.9 10.81, 2.78 10.15 C1.66 9.5, 0.3 8.17, -0.1 7.09 C-0.5 6.01, -0.08 4.83, 0.37 3.67 C0.82 2.51, 1.48 0.69, 2.62 0.15 C3.75 -0.38, 6.39 0.45, 7.16 0.45 C7.93 0.45, 7.34 0.08, 7.25 0.13 M5.41 -0.52 C6.49 -0.51, 8.23 0.32, 9.22 1.24 C10.2 2.17, 11.1 3.86, 11.34 5.02 C11.58 6.18, 11.27 7.18, 10.65 8.22 C10.03 9.26, 8.72 10.91, 7.63 11.27 C6.53 11.62, 5.2 10.92, 4.05 10.35 C2.9 9.78, 1.49 8.87, 0.75 7.85 C0 6.83, -0.74 5.3, -0.41 4.22 C-0.09 3.15, 1.6 2.13, 2.69 1.39 C3.78 0.65, 5.65 -0.05, 6.13 -0.23 C6.62 -0.42, 5.77 0.11, 5.59 0.27" stroke="#1e1e1e" stroke-width="2" fill="none"></path></g><g stroke-linecap="round" transform="translate(538.6814762603467 629.1313197480504) rotate(0 57.48810967759698 57.48810967759698)"><path d="M9.75 25.7 C9.75 25.7, 9.75 25.7, 9.75 25.7 M9.75 25.7 C9.75 25.7, 9.75 25.7, 9.75 25.7 M2.67 46.05 C11.02 35.02, 22.15 23.34, 36.78 6.8 M2.67 46.05 C14.09 33.11, 24.64 21.34, 36.78 6.8 M2.15 58.84 C16.14 42.69, 27.83 27.76, 50.69 2.99 M2.15 58.84 C11.42 47.97, 22.96 35.32, 50.69 2.99 M3.59 69.37 C23.72 43.63, 43.81 21.7, 62.64 1.45 M3.59 69.37 C21.08 50.38, 38.45 29.83, 62.64 1.45 M5.04 79.9 C27.59 55.96, 47.85 33.01, 71.3 3.68 M5.04 79.9 C25.62 57, 45.14 34.41, 71.3 3.68 M9.76 86.66 C36.78 57.17, 63.18 29.55, 79.96 5.91 M9.76 86.66 C26.96 67.59, 42.31 49.02, 79.96 5.91 M14.49 93.42 C34.73 67.36, 57.71 45.23, 87.31 9.65 M14.49 93.42 C29.97 74.07, 46.73 54.6, 87.31 9.65 M19.21 100.18 C46.74 68.89, 73.34 36.97, 93.35 14.9 M19.21 100.18 C47.3 68.56, 73.93 36.73, 93.35 14.9 M26.56 103.92 C45.26 84.22, 62.55 63.44, 99.39 20.14 M26.56 103.92 C51.05 75.62, 76.91 47.24, 99.39 20.14 M33.91 107.66 C58.05 79.08, 85.04 47.4, 105.42 25.39 M33.91 107.66 C50.05 89.4, 65.47 71.54, 105.42 25.39 M41.26 111.39 C59.5 88.99, 78.04 66.65, 108.84 33.66 M41.26 111.39 C62.66 86.23, 86.14 58.82, 108.84 33.66 M49.27 114.38 C69.17 91.3, 94.16 64.23, 112.25 41.93 M49.27 114.38 C68.09 91.81, 86.28 72.05, 112.25 41.93 M60.55 113.59 C75.08 93.79, 92.85 75.23, 115.66 50.19 M60.55 113.59 C73.83 97.69, 86.71 82.63, 115.66 50.19 M71.18 113.56 C87.83 96.53, 101.49 79, 113.83 64.5 M71.18 113.56 C79.88 104.81, 87.83 93.92, 113.83 64.5 M92.31 101.45 C98.16 96.22, 104.47 89.15, 105.43 86.35 M92.31 101.45 C95.75 97.98, 99.07 93.65, 105.43 86.35" stroke="#868e96" stroke-width="1" fill="none"></path><path d="M84.39 6.77 C92.4 9.89, 99.29 17.03, 104.45 24.23 C109.61 31.44, 114.11 41.3, 115.36 50.01 C116.61 58.72, 115.27 68.31, 111.95 76.51 C108.63 84.71, 102.26 93.07, 95.46 99.19 C88.66 105.31, 79.5 110.78, 71.13 113.23 C62.76 115.67, 53.82 116.02, 45.24 113.85 C36.65 111.69, 26.49 106.11, 19.63 100.26 C12.76 94.42, 7.21 86.92, 4.07 78.79 C0.93 70.65, -0.1 60.26, 0.81 51.45 C1.72 42.64, 4.51 33.29, 9.54 25.95 C14.57 18.61, 23.04 11.69, 31.01 7.41 C38.98 3.13, 47.33 -0.42, 57.35 0.26 C67.38 0.94, 84.47 8.5, 91.17 11.51 C97.88 14.51, 98.07 17.66, 97.59 18.29 M41.13 2.47 C48.92 -0.87, 59.66 -1.3, 68.28 0.21 C76.91 1.72, 85.91 6.1, 92.88 11.54 C99.85 16.99, 106.68 24.6, 110.11 32.9 C113.55 41.2, 114.08 52.42, 113.47 61.32 C112.87 70.23, 110.94 78.88, 106.46 86.33 C101.98 93.78, 94.04 101.04, 86.62 106.02 C79.19 111, 70.77 115.35, 61.91 116.21 C53.06 117.07, 41.96 115.07, 33.49 111.16 C25.02 107.25, 16.44 99.61, 11.1 92.74 C5.75 85.86, 2.81 78.77, 1.43 69.9 C0.04 61.03, 0.47 48.21, 2.76 39.53 C5.05 30.85, 9.06 23.99, 15.14 17.84 C21.23 11.69, 35.14 4.81, 39.25 2.65 C43.35 0.49, 39.3 4.03, 39.77 4.89" stroke="#1e1e1e" stroke-width="2" fill="none"></path></g><g stroke-linecap="round" transform="translate(590.5221313326183 680.9719748203219) rotate(0 5.647454605325493 5.647454605325493)"><path d="M5.14 -0.43 C6.19 -0.68, 7.4 0.41, 8.36 1.16 C9.31 1.9, 10.49 2.85, 10.87 4.03 C11.26 5.22, 11.1 7.18, 10.67 8.27 C10.24 9.35, 9.34 10.11, 8.29 10.56 C7.23 11.01, 5.46 11.33, 4.33 10.99 C3.2 10.65, 2.16 9.51, 1.5 8.52 C0.83 7.52, 0.4 6.16, 0.34 5.01 C0.28 3.87, 0.3 2.48, 1.13 1.65 C1.97 0.83, 4.61 0.23, 5.34 0.04 C6.07 -0.14, 5.5 0.49, 5.52 0.54 M5.67 -0.61 C6.87 -0.9, 8.5 0.01, 9.49 0.87 C10.48 1.73, 11.4 3.19, 11.63 4.55 C11.87 5.9, 11.44 8.01, 10.91 9.01 C10.39 10.02, 9.54 10.24, 8.48 10.58 C7.42 10.93, 5.86 11.38, 4.57 11.07 C3.27 10.75, 1.43 9.69, 0.72 8.68 C0.02 7.67, 0.15 6.31, 0.32 5.01 C0.5 3.71, 0.87 1.81, 1.76 0.86 C2.64 -0.09, 5.04 -0.6, 5.63 -0.69 C6.22 -0.77, 5.46 0, 5.31 0.32" stroke="none" stroke-width="0" fill="#1e1e1e"></path><path d="M5 0.04 C6.13 -0.19, 7.5 0.58, 8.49 1.25 C9.49 1.93, 10.65 3.06, 10.98 4.09 C11.31 5.12, 10.99 6.39, 10.48 7.42 C9.96 8.45, 8.86 9.57, 7.88 10.28 C6.89 11, 5.64 11.88, 4.57 11.68 C3.5 11.49, 2.27 10.13, 1.46 9.12 C0.64 8.1, -0.33 6.76, -0.3 5.6 C-0.27 4.44, 0.67 3.11, 1.61 2.15 C2.56 1.19, 4.64 0.13, 5.36 -0.15 C6.07 -0.43, 5.88 0.31, 5.9 0.46 M5.48 -0.27 C6.7 -0.37, 8.54 0, 9.43 0.96 C10.32 1.93, 10.73 4.12, 10.79 5.53 C10.86 6.94, 10.44 8.42, 9.82 9.42 C9.21 10.43, 8.21 11.3, 7.08 11.56 C5.95 11.83, 4.17 11.54, 3.06 11.01 C1.95 10.48, 0.94 9.6, 0.41 8.37 C-0.11 7.13, -0.47 4.85, -0.08 3.59 C0.31 2.34, 1.79 1.53, 2.77 0.84 C3.75 0.15, 5.3 -0.45, 5.8 -0.53 C6.31 -0.62, 5.68 0.21, 5.82 0.32" stroke="#1e1e1e" stroke-width="2" fill="none"></path></g><g stroke-linecap="round" transform="translate(453.67068074735107 227.41946934660837) rotate(0 156.2288834229803 135.1460929264535)"><path d="M32 0 C89.47 2.07, 150.18 3.1, 280.46 0 M32 0 C104.1 0.71, 176.7 0.54, 280.46 0 M280.46 0 C300.66 0.95, 313.47 9.97, 312.46 32 M280.46 0 C300.22 1.8, 310.77 12.95, 312.46 32 M312.46 32 C312.62 111.72, 311.48 192.38, 312.46 238.29 M312.46 32 C311.99 100.97, 312.39 169.01, 312.46 238.29 M312.46 238.29 C312.96 259.95, 301.98 269.97, 280.46 270.29 M312.46 238.29 C313.21 259.93, 302.85 271.03, 280.46 270.29 M280.46 270.29 C229.36 270.47, 176.12 269.77, 32 270.29 M280.46 270.29 C204.93 269.19, 129.88 269.55, 32 270.29 M32 270.29 C9.02 270.09, -0.96 257.97, 0 238.29 M32 270.29 C12.6 269.95, 0.25 257.5, 0 238.29 M0 238.29 C0.45 189.5, 0.39 142.14, 0 32 M0 238.29 C1 190.76, 1.69 141.69, 0 32 M0 32 C-1.2 9.79, 10.05 -0.36, 32 0 M0 32 C-0.1 12.91, 10.47 -0.69, 32 0" stroke="#1e1e1e" stroke-width="2" fill="none"></path></g><g stroke-linecap="round"><g transform="translate(489.4921072541613 498.5749697768425) rotate(0 -54.136091056754935 17.112771173881413)"><path d="M-0.66 -0.71 C-4.98 2.09, -11.05 13.22, -25.44 15.87 C-39.84 18.53, -73.14 11.98, -87.04 15.21 C-100.95 18.45, -105.25 32.13, -108.86 35.3 M1.19 1.53 C-3.27 4.05, -11.28 11.54, -26.05 14.03 C-40.83 16.51, -73.64 13.24, -87.45 16.46 C-101.27 19.67, -105.71 30.28, -108.92 33.3" stroke="#1e1e1e" stroke-width="2" fill="none"></path></g></g><mask></mask></svg>